<?xml version="1.0" encoding="UTF-8" standalone="no"?>
<svg width="100px" height="100px" viewBox="0 0 100 100" version="1.1" xmlns="http://www.w3.org/2000/svg" xmlns:xlink="http://www.w3.org/1999/xlink" xmlns:sketch="http://www.bohemiancoding.com/sketch/ns">
    <!-- Generator: Sketch 3.0.4 (8053) - http://www.bohemiancoding.com/sketch -->
    <title>instagram-icon</title>
    <desc>Created with Sketch.</desc>
    <defs></defs>
    <g id="Page-1" stroke="none" stroke-width="1" fill="none" fill-rule="evenodd" sketch:type="MSPage">
        <path d="M70.7646341,35.7143204 L99.9658537,35.7143204 L99.9658537,80.3247573 C99.9658537,91.1912621 91.1141463,100 80.1946341,100 L19.7714634,100 C8.85219512,100 0.000243902439,91.1910194 0.000243902439,80.3247573 L0.000243902439,35.7143204 L29.0707317,35.7143204 C26.095122,39.8747573 24.3392683,44.9587379 24.3392683,50.4543689 C24.3392683,64.5123786 35.7912195,75.9087379 49.9180488,75.9087379 C64.0446341,75.9087379 75.4965854,64.5123786 75.4965854,50.4543689 C75.4963415,44.9584951 73.7402439,39.8745146 70.7646341,35.7143204 L70.7646341,35.7143204 Z M99.9658537,19.6752427 L99.9658537,32.5973301 L68.1407317,32.5973301 C63.5012195,27.9092233 57.0517073,24.9997573 49.9178049,24.9997573 C42.7834146,24.9997573 36.3341463,27.9089806 31.694878,32.5973301 L7.10542736e-15,32.5973301 L7.10542736e-15,19.6752427 C7.10542736e-15,13.0436893 3.3004878,7.18276699 8.35243902,3.6184466 L8.35243902,24.8050971 L12.4060976,24.8050971 L12.4060976,1.41674757 C13.3256098,1.04878641 14.2790244,0.748786408 15.2607317,0.520873786 L15.2607317,24.8053398 L19.3146341,24.8053398 L19.3146341,0.011407767 C19.4670732,0.00776699029 19.6182927,0 19.7714634,0 L22.112439,0 L22.112439,24.8048544 L26.1660976,24.8048544 L26.1660976,0 L80.1946341,0 C91.1141463,0 99.9658537,8.80873786 99.9658537,19.6752427 L99.9658537,19.6752427 Z M90.9290244,11.382767 C90.9290244,9.63980583 89.5090244,8.22694175 87.757561,8.22694175 L77.0695122,8.22694175 C75.317561,8.22694175 73.8980488,9.63980583 73.8980488,11.382767 L73.8980488,22.2529126 C73.8980488,23.9958738 75.317561,25.4087379 77.0695122,25.4087379 L87.757561,25.4087379 C89.5090244,25.4087379 90.9290244,23.9958738 90.9290244,22.2529126 L90.9290244,11.382767 L90.9290244,11.382767 Z M30.2117073,50.4543689 C30.2117073,44.5834951 32.8209756,39.3114078 36.9417073,35.7143204 C38.3870732,34.4529126 40.0180488,33.3990291 41.7892683,32.5973301 C44.2695122,31.4747573 47.0202439,30.843932 49.9178049,30.843932 C52.8156098,30.843932 55.5658537,31.4747573 58.0460976,32.5973301 C59.817561,33.3990291 61.4485366,34.4529126 62.8939024,35.7143204 C67.0146341,39.3114078 69.6236585,44.5837379 69.6236585,50.4543689 C69.6236585,61.2674757 60.7839024,70.0645631 49.9178049,70.0645631 C39.0519512,70.0645631 30.2117073,61.2674757 30.2117073,50.4543689 L30.2117073,50.4543689 Z M35.4185366,50.4543689 C35.4185366,58.4589806 41.9392683,64.9475728 49.9829268,64.9475728 C58.0265854,64.9475728 64.5470732,58.4589806 64.5470732,50.4543689 C64.5470732,42.4495146 58.0268293,35.9609223 49.9829268,35.9609223 C41.9392683,35.9609223 35.4185366,42.4495146 35.4185366,50.4543689 L35.4185366,50.4543689 Z" id="instagram-icon" fill="#FFFFFF" sketch:type="MSShapeGroup"></path>
    </g>
</svg>