<?xml version="1.0" encoding="UTF-8" standalone="no"?>
<svg width="100px" height="82px" viewBox="0 0 100 82" version="1.1" xmlns="http://www.w3.org/2000/svg" xmlns:xlink="http://www.w3.org/1999/xlink" xmlns:sketch="http://www.bohemiancoding.com/sketch/ns">
    <!-- Generator: Sketch 3.0.4 (8053) - http://www.bohemiancoding.com/sketch -->
    <title>twitter-icon</title>
    <desc>Created with Sketch.</desc>
    <defs></defs>
    <g id="Page-1" stroke="none" stroke-width="1" fill="none" fill-rule="evenodd" sketch:type="MSPage">
        <path d="M88.2167476,12.9594269 C92.4519417,10.3988239 95.7055825,6.34435224 97.2371359,1.51271642 C93.2728155,3.88386269 88.8822816,5.60561791 84.2089806,6.5333194 C80.4667476,2.51213731 75.1347087,0 69.2337379,0 C55.9910194,0 46.256068,12.4630209 49.2490291,25.4045791 C32.1980583,24.5419881 17.0805825,16.3045373 6.9618932,3.7874209 C1.58762136,13.0847522 4.17427184,25.2520836 13.3109223,31.410406 C9.94830097,31.303194 6.78398058,30.3723104 4.0184466,28.8221433 C3.79587379,38.4080657 10.6072816,47.3715224 20.4735437,49.3708537 C17.586165,50.163194 14.4235437,50.3445731 11.2089806,49.7250448 C13.8191748,57.9446269 21.3963592,63.9264657 30.3740291,64.0931582 C21.7485437,70.9099284 10.8849515,73.9546985 0,72.6610567 C9.07912621,78.5312776 19.8633495,81.9569194 31.4492718,81.9569194 C69.5395631,81.9569194 91.0597087,49.5116 89.7626214,20.4116358 C93.7716019,17.4946388 97.2495146,13.8506567 100,9.70145672 C96.3208738,11.3473313 92.3667476,12.4598388 88.2167476,12.9594269 Z" id="twitter-icon" fill="#FFFFFF" sketch:type="MSShapeGroup"></path>
    </g>
</svg>