<?xml version="1.0" encoding="UTF-8" standalone="no"?>
<svg width="101px" height="87px" viewBox="0 0 101 87" version="1.1" xmlns="http://www.w3.org/2000/svg" xmlns:xlink="http://www.w3.org/1999/xlink" xmlns:sketch="http://www.bohemiancoding.com/sketch/ns">
    <!-- Generator: Sketch 3.0.4 (8053) - http://www.bohemiancoding.com/sketch -->
    <title>Shape</title>
    <desc>Created with Sketch.</desc>
    <defs></defs>
    <g id="Page-1" stroke="none" stroke-width="1" fill="none" fill-rule="evenodd" sketch:type="MSPage">
        <path d="M50.0024828,41.3166257 L44.6450511,35.9072891 L49.1514324,24.9019656 L49.1060896,24.9019656 L47.3551581,22.8734644 C48.2027206,23.1798526 49.08865,23.3665029 50.0024828,23.3665029 C50.9163155,23.3665029 51.798757,23.1833743 52.6428315,22.8769861 L50.895388,24.9019656 L50.8500452,24.9019656 L55.3564265,35.9072891 L50.0024828,41.3166257 C59.5628474,41.3166257 69.1197241,39.7283374 69.1197241,36.5517609 C69.1197241,31.181163 62.9914641,23.9299754 54.7181387,21.8134316 C58.1781467,19.4644554 60.56039,14.8298935 60.56039,10.6601966 C60.56039,4.77190827 55.8342703,1.77635684e-14 50.0024828,1.77635684e-14 C44.1706952,1.77635684e-14 39.4445755,4.77190827 39.4445755,10.6601966 C39.4445755,14.8334152 41.8268189,19.4644554 45.2868268,21.8134316 C37.0135014,23.9299754 30.8852414,31.181163 30.8852414,36.5517609 C30.8852414,39.7283374 40.4421181,41.3166257 50.0024828,41.3166257 L50.0024828,41.3166257 Z M99.9214681,53.1072891 L99.9214681,48.4515971 L90.6471122,42.394267 L97.1939215,48.4515971 L2.82150773,48.4515971 L9.37180499,42.394267 L0.0834974237,48.4515971 L0.0834974237,53.1072891 L9.37180499,53.1072891 L9.37180499,81.0625717 L7.06280777,81.0625717 L7.06280777,83.6897625 L3.62721522,83.6897625 L3.62721522,86.2746929 L96.388214,86.2746929 L96.388214,83.6897625 L92.9421577,83.6897625 L92.9421577,81.0625717 L90.6471122,81.0625717 L90.6471122,53.1072891 L99.9214681,53.1072891 Z" id="Shape" fill="#FFFFFF" sketch:type="MSShapeGroup"></path>
    </g>
</svg>